<svg width="24" height="24" viewBox="0 0 24 24" fill="none" xmlns="http://www.w3.org/2000/svg">
    <g clip-path="url(#clip0_72_8)">
    <path d="M20.5551 20.5353L20.5552 20.5352C21.0298 20.0606 21.0298 19.2882 20.5552 18.8136C20.3253 18.5837 20.0195 18.457 19.6943 18.457C19.3692 18.457 19.0634 18.5837 18.8334 18.8138C18.3589 19.2882 18.3589 20.0606 18.8335 20.5352C19.3083 21.0097 20.0805 21.0097 20.5551 20.5353ZM19.2121 20.1566C19.0834 20.0278 19.0124 19.8566 19.0124 19.6744C19.0124 19.4922 19.0834 19.3209 19.2121 19.1921C19.341 19.0634 19.5123 18.9924 19.6944 18.9924C19.8766 18.9924 20.0477 19.0634 20.1766 19.1921C20.4424 19.4581 20.4424 19.8906 20.1765 20.1566C19.9106 20.4225 19.4781 20.4224 19.2121 20.1566Z" fill="#333333"/>
    <path d="M22.6793 5.36981C22.6795 5.36947 22.6799 5.36924 22.6802 5.36895C22.6808 5.36837 22.6813 5.36773 22.6819 5.36716L22.7553 5.29376L22.7534 5.29191C23.8446 4.12105 23.8206 2.28105 22.68 1.14049C22.1153 0.575734 21.3645 0.264694 20.5658 0.264694C19.8027 0.264694 19.0837 0.549214 18.5286 1.06709L18.5268 1.06531L18.4533 1.13873C18.4527 1.13935 18.4521 1.13987 18.4515 1.14048C18.4512 1.14076 18.451 1.14108 18.4507 1.1414L0.885095 18.7069L0.891935 18.7138C0.793748 18.7771 0.722615 18.8811 0.705535 19.0059L0.127855 23.2254C0.110268 23.354 0.153855 23.4833 0.245602 23.5751C0.323935 23.6534 0.429695 23.6966 0.538988 23.6966C0.557682 23.6966 0.576495 23.6953 0.595308 23.6928L4.81466 23.1149C4.93952 23.0979 5.0435 23.0267 5.10682 22.9285L5.11364 22.9354L22.6793 5.36981ZM20.5658 1.09459C21.1427 1.09459 21.6852 1.31928 22.0931 1.72728C22.835 2.46912 22.9235 3.62088 22.3584 4.46039L19.3598 1.46187C19.7132 1.22299 20.1297 1.09459 20.5658 1.09459ZM18.5268 2.23892L21.5816 5.29375L5.11364 21.7617L3.96438 20.6125L17.1833 7.39373L16.392 6.60251L3.1732 19.8214L2.05873 18.7069L18.5268 2.23892ZM1.0242 22.7964L1.49994 19.3217L4.4988 22.3206L1.0242 22.7964Z" fill="#333333"/>
    <path d="M6.75976 10.7264L7.51695 9.9692L1.45767 3.90987L3.9301 1.43737L5.10242 2.6098L4.25186 3.46024L4.92335 4.13169L5.77391 3.28131L6.4574 3.96475L5.60684 4.81525L6.27835 5.48664L7.12898 4.63625L7.8124 5.31981L6.55407 6.57785L7.22575 7.24936L8.48391 5.9912L9.31727 6.82451L8.46671 7.67519L9.13822 8.34657L9.98878 7.49601L9.98935 7.49664L10.7465 6.73945L4.30863 0.301628C4.09954 0.0924811 3.7606 0.0924811 3.55151 0.301628L0.321909 3.53127C0.112749 3.74037 0.112749 4.07936 0.321909 4.28845L6.75976 10.7264Z" fill="#333333"/>
    <path d="M23.7196 19.7105C23.71 19.7008 23.6999 19.6915 23.6898 19.6827L16.9527 12.9457L14.9372 14.9612L15.6073 15.6313L16.8656 14.373L22.5828 20.0901L20.1103 22.5626L13.723 16.1754L12.9658 16.9327L19.7316 23.6984C19.9407 23.9076 20.2797 23.9076 20.4888 23.6984L23.7186 20.4688C23.7189 20.4684 23.7192 20.4682 23.7197 20.4677C23.9288 20.2587 23.9288 19.9196 23.7196 19.7105Z" fill="#333333"/>
    </g>
    <defs>
    <clipPath id="clip0_72_8">
    <rect width="24" height="24" fill="white"/>
    </clipPath>
    </defs>
</svg>
